<svg width="2141" height="910" viewBox="0 0 2141 910" fill="none" xmlns="http://www.w3.org/2000/svg">
<g clip-path="url(#clip0_1957_36)">
<path d="M2140.41 897.961L1912.91 571.92L2135.14 252.23H1899.25L1791.85 425.32L1684.45 252.23H1448.56L1671.45 572.87L1444.61 897.961H1679.18L1792.39 718.98L1904.53 897.961H2140.41Z" fill="#39F492"/>
<path d="M1436.77 403.77C1410.41 352.81 1373.07 311.96 1324.75 281.21C1276.44 250.46 1218.45 235.09 1150.8 235.09C1083.15 235.09 1028.69 250.03 979.491 279.9C931.171 308.89 893.391 348.86 866.161 399.82C838.921 450.77 825.301 509.19 825.301 575.09C825.301 640.99 838.921 702.91 866.161 752.99C893.391 803.07 931.171 841.72 979.491 868.96C1028.69 896.19 1085.79 909.81 1150.8 909.81C1221.09 909.81 1282.58 895.31 1335.3 866.32C1388.01 836.45 1427.98 796.48 1455.22 746.4L1312.89 669.97C1297.96 692.81 1279.07 711.7 1256.23 726.63C1234.27 740.69 1204.39 747.72 1166.62 747.72C1119.18 747.72 1082.28 735.86 1055.92 712.14C1035.85 693.4 1023.43 668.8 1018.65 638.34H1471.04C1472.8 631.31 1474.12 622.09 1475 610.67C1475.87 599.25 1476.31 586.51 1476.31 572.45C1476.31 510.07 1463.13 453.85 1436.78 403.77H1436.77ZM1153.44 399.82C1199.12 399.82 1232.95 412.99 1254.91 439.35C1267.78 454.8 1276.87 472.81 1282.2 493.38H1021.38C1027.1 471.16 1037.73 452.27 1053.28 436.72C1077.87 412.12 1111.26 399.82 1153.43 399.82H1153.44Z" fill="#39F492"/>
<path fill-rule="evenodd" clip-rule="evenodd" d="M527.12 0V297.54C527.12 312.7 519.03 326.74 505.85 334.26L404.36 392.77C391.18 400.28 374.99 400.28 361.81 392.77L260.32 334.26C247.14 326.72 239.04 312.68 239.04 297.54V0H0V897.95H239.04V646.36C239.04 644.5 239.99 637.45 239.99 637.45C242.49 625.86 249.77 615.67 260.32 609.66L361.83 551.15C375.01 543.63 391.2 543.63 404.37 551.15L505.87 609.66L505.85 609.64C516.31 615.67 523.58 625.86 526.12 637.45C526.12 637.45 527.12 643.24 527.12 646.36V897.95H766.17V0H527.12Z" fill="#39F492"/>
</g>
<defs>
<clipPath id="clip0_1957_36">
<rect width="2140.41" height="909.81" fill="white"/>
</clipPath>
</defs>
</svg>
