<svg width="1023" height="1025" viewBox="0 0 1023 1025" fill="none" xmlns="http://www.w3.org/2000/svg">
<g clip-path="url(#clip0_1842_16)">
<path d="M710.938 400.932L939.478 235.102C941.408 233.702 941.838 231.002 940.438 229.072L926.158 209.392C924.758 207.462 922.058 207.032 920.128 208.432L688.238 377.262C697.298 383.732 704.968 391.802 710.948 400.942L710.938 400.932Z" fill="#19E57F"/>
<path d="M672.711 367.791L864.571 144.611C866.181 142.731 865.971 139.911 864.091 138.291L844.011 121.031C842.131 119.421 839.311 119.631 837.691 121.511L642.141 350.091L672.711 367.791Z" fill="#19E57F"/>
<path d="M725.371 504.981L1018.46 461.301C1020.65 460.971 1022.15 458.941 1021.83 456.751L1018.88 436.971C1018.55 434.791 1016.52 433.281 1014.33 433.601L725.371 476.661V504.971V504.981Z" fill="#19E57F"/>
<path d="M725.37 449.032V451.842L992.031 341.952C994.151 341.072 995.17 338.642 994.29 336.522L985.85 316.032C984.97 313.912 982.54 312.892 980.42 313.772L720.73 421.032C723.76 429.952 725.37 439.402 725.37 449.032Z" fill="#19E57F"/>
<path d="M631.219 343.762L770.459 73.5919C771.629 71.3119 770.739 68.5119 768.459 67.3419L742.999 54.2219C740.719 53.0519 737.919 53.9419 736.749 56.2219L599.199 325.222L631.219 343.762Z" fill="#19E57F"/>
<path d="M449.871 317.481L473.831 303.601C478.861 300.681 484.111 298.311 489.511 296.481L415.501 13.3105C414.781 10.5705 411.991 8.94052 409.251 9.65052L375.271 18.5305C372.531 19.2505 370.901 22.0405 371.611 24.7805L449.871 317.481Z" fill="#19E57F"/>
<path d="M1015.92 553.132L725.37 515.552V587.332C725.37 618.672 708.57 647.852 681.54 663.452L561.87 732.742C548.29 740.612 533.08 744.532 517.84 744.532C502.6 744.532 487.41 740.612 473.85 732.762L354.13 663.422C327.14 647.852 310.36 618.692 310.36 587.342V449.052C310.36 417.712 327.14 388.552 354.15 372.932L446.47 319.472L300.67 50.0117C299.28 47.4517 296.08 46.4917 293.51 47.8817L260.72 65.6217C258.16 67.0117 257.2 70.2117 258.59 72.7817L406.37 341.762L199.91 111.232C197.91 108.992 194.47 108.802 192.23 110.812L162.85 137.122C160.61 139.122 160.42 142.562 162.43 144.802L361.7 364.082L116.57 193.432C114.03 191.662 110.54 192.292 108.77 194.832L84.9997 228.972C83.2297 231.512 83.8597 235.002 86.3997 236.772L324.08 399.432L53.7897 293.632C50.8297 292.472 47.4897 293.932 46.3297 296.892L30.3797 337.642C29.2197 340.602 30.6797 343.942 33.6397 345.102L298.33 446.022L15.3697 408.512C12.1297 408.082 9.14971 410.362 8.71971 413.602L2.67971 459.122C2.24971 462.362 4.52971 465.342 7.76971 465.772L276.7 498.792L5.38971 529.872C2.04971 530.252 -0.340294 533.272 0.0397056 536.602L5.50971 584.372C5.88971 587.712 8.90971 590.102 12.2397 589.722L276.79 556.622L24.3697 651.012C21.1397 652.222 19.4997 655.812 20.7097 659.042L38.3097 706.102C39.5197 709.332 43.1097 710.972 46.3397 709.762L278.79 619.842L70.2697 761.112C67.3397 763.092 66.5797 767.072 68.5597 770.002L97.9497 813.382C99.9297 816.312 103.91 817.072 106.84 815.092L300.17 680.682L139.34 855.952C136.89 858.622 137.07 862.772 139.74 865.222L179.94 902.112C182.61 904.562 186.76 904.382 189.21 901.712L339.32 733.832L228.36 932.392C226.55 935.632 227.71 939.722 230.95 941.532L280.46 969.202C283.7 971.012 287.79 969.852 289.6 966.612L393.87 773.882L334.41 987.012C333.39 990.672 335.53 994.462 339.19 995.492L395.9 1011.31C399.56 1012.33 403.35 1010.19 404.38 1006.53L459.88 795.882L453.65 1015.72C453.54 1019.61 456.6 1022.85 460.49 1022.96L521.51 1024.69C525.4 1024.8 528.64 1021.74 528.75 1017.85L531.32 821.402L572.79 1015.14C573.62 1019.03 577.45 1021.51 581.34 1020.67L643.14 1007.44C647.03 1006.61 649.51 1002.78 648.67 998.892L605.19 810.612L690.1 987.152C691.86 990.812 696.26 992.352 699.92 990.592L758.82 962.262C762.48 960.502 764.02 956.102 762.26 952.442L683.31 795.152L796.43 933.132C799.06 936.342 803.8 936.812 807.01 934.182L859.23 891.372C862.44 888.742 862.91 884.002 860.28 880.792L754.03 755.782L887.11 855.482C890.5 858.022 895.32 857.332 897.86 853.942L939.64 798.172C942.18 794.782 941.49 789.962 938.1 787.422L810.19 695.242L957.44 757.072C961.43 758.752 966.03 756.872 967.7 752.882L995.51 686.642C997.19 682.652 995.31 678.052 991.32 676.382L846.05 618.662L1002.56 642.122C1006.93 642.782 1011 639.762 1011.66 635.392L1022.63 562.212C1023.28 557.842 1020.27 553.772 1015.9 553.112L1015.92 553.132Z" fill="#19E57F"/>
<path d="M561.851 303.591L589.471 319.591L660.191 25.6006C660.811 23.0206 659.221 20.4306 656.651 19.8106L626.701 12.6106C624.121 11.9906 621.531 13.5806 620.911 16.1506L553.941 299.531C556.631 300.741 559.271 302.091 561.851 303.581V303.591Z" fill="#19E57F"/>
<path d="M542.292 295.272L539.412 4.94155C539.382 2.20155 537.142 0.00155321 534.402 0.0315532L501.442 0.361553C498.702 0.391553 496.502 2.63155 496.532 5.37155L500.772 293.482C514.512 290.772 528.772 291.382 542.292 295.282V295.272Z" fill="#19E57F"/>
</g>
<defs>
<clipPath id="clip0_1842_16">
<rect width="1022.73" height="1024.67" fill="white" transform="translate(0 0.03125)"/>
</clipPath>
</defs>
</svg>
